<?xml version="1.0" standalone="no"?>
<!DOCTYPE svg PUBLIC "-//W3C//DTD SVG 20010904//EN"
 "http://www.w3.org/TR/2001/REC-SVG-20010904/DTD/svg10.dtd">
<svg version="1.0" xmlns="http://www.w3.org/2000/svg"
 width="300.000000pt" height="300.000000pt" viewBox="0 0 300.000000 300.000000"
 preserveAspectRatio="xMidYMid meet">

<g transform="translate(0.000000,300.000000) scale(0.100000,-0.100000)"
fill="#000000" stroke="none">
<path d="M1377 2379 c-64 -15 -143 -58 -196 -105 -28 -25 -51 -50 -51 -55 0
-5 66 -10 147 -11 l147 -3 158 -275 c87 -151 158 -278 158 -282 0 -5 -129 -8
-287 -8 l-286 0 22 -24 c12 -13 43 -35 69 -49 130 -70 277 -76 405 -14 278
132 340 499 119 709 -32 30 -77 65 -100 77 -90 46 -212 62 -305 40z"/>
<path d="M918 1888 c-8 -13 -20 -33 -27 -45 l-12 -23 371 0 371 0 -23 43 -23
42 -321 3 -322 2 -14 -22z"/>
<path d="M824 1728 c-16 -29 -30 -56 -32 -60 -2 -5 204 -8 457 -8 254 0 461 3
461 6 0 4 -14 31 -31 60 l-30 54 -398 0 -398 0 -29 -52z"/>
<path d="M400 1153 l0 -193 50 0 50 0 0 74 0 74 69 4 70 3 6 -42 c13 -86 93
-139 174 -114 105 31 134 177 50 257 -27 25 -38 29 -90 29 -57 0 -63 -2 -95
-37 -19 -21 -35 -48 -35 -60 -1 -15 -4 -10 -8 12 l-6 34 -65 1 -65 0 -3 33 -3
32 71 0 71 0 -3 41 -3 42 -118 1 -117 1 0 -192z m404 1 c31 -30 13 -124 -24
-124 -20 0 -40 34 -40 70 0 36 20 70 40 70 5 0 16 -7 24 -16z"/>
<path d="M1290 1335 c1 -5 31 -93 69 -195 l67 -185 35 -3 35 -3 72 194 c40
107 72 197 72 199 0 2 -24 3 -52 2 l-53 -2 -36 -103 -36 -103 -34 103 -35 103
-52 2 c-30 1 -52 -3 -52 -9z"/>
<path d="M1904 1341 c-2 -2 -4 -89 -4 -193 l0 -188 45 0 45 0 0 189 0 189 -41
4 c-22 2 -42 2 -45 -1z"/>
<path d="M2040 1150 l0 -190 45 0 45 0 0 190 0 190 -45 0 -45 0 0 -190z"/>
<path d="M1670 1233 c-31 -16 -35 -23 -38 -61 l-3 -42 37 25 c42 28 66 31 84
10 16 -20 8 -29 -40 -45 -85 -28 -115 -96 -65 -145 27 -28 58 -31 98 -11 15 8
27 11 27 6 0 -16 40 -22 75 -10 30 10 35 16 35 42 0 22 -4 29 -14 25 -11 -5
-15 12 -18 83 -2 76 -6 93 -25 111 -30 30 -106 36 -153 12z m77 -211 c-8 -8
-20 -11 -26 -8 -18 12 -12 44 12 61 21 15 22 15 25 -11 2 -15 -3 -33 -11 -42z"/>
<path d="M2240 1243 c-28 -10 -70 -56 -81 -90 -36 -111 50 -217 163 -199 62
10 78 22 78 60 l0 33 -47 -15 c-40 -13 -49 -14 -71 -1 -51 29 -39 39 49 39
l82 0 -6 50 c-7 58 -29 95 -68 116 -28 14 -71 17 -99 7z m68 -75 c24 -24 13
-38 -28 -38 -43 0 -45 2 -30 31 12 21 40 25 58 7z"/>
<path d="M900 1235 c0 -3 20 -35 44 -72 l45 -66 -38 -56 c-21 -31 -41 -62 -45
-68 -5 -10 5 -13 41 -13 46 0 50 2 70 37 l21 37 18 -37 c17 -36 19 -37 76 -37
l58 0 -45 69 c-25 38 -45 73 -45 78 0 4 18 35 40 68 l40 60 -47 3 c-48 3 -51
1 -79 -44 -10 -16 -12 -15 -29 14 -18 30 -23 32 -72 32 -29 0 -53 -2 -53 -5z"/>
<path d="M2448 1119 l45 -121 -20 -56 c-12 -32 -32 -88 -47 -125 l-26 -68 48
3 47 3 73 190 c40 105 81 214 92 243 l20 52 -45 0 -44 0 -22 -60 c-12 -34 -25
-57 -29 -53 -4 4 -15 32 -25 61 l-17 52 -48 0 -48 0 46 -121z"/>
<path d="M390 895 c0 -8 9 -15 20 -15 18 0 20 -7 20 -65 0 -58 2 -65 20 -65
18 0 20 7 20 65 0 58 2 65 20 65 11 0 20 7 20 15 0 12 -13 15 -60 15 -47 0
-60 -3 -60 -15z"/>
<path d="M527 903 c-4 -3 -7 -39 -7 -80 l0 -73 45 0 c33 0 45 4 45 15 0 9 -9
15 -25 15 -18 0 -25 5 -25 20 0 15 7 20 26 20 31 0 28 23 -4 28 -31 5 -28 32
3 32 16 0 25 6 25 15 0 11 -11 15 -38 15 -21 0 -42 -3 -45 -7z"/>
<path d="M664 900 c-25 -10 -48 -68 -38 -96 12 -34 36 -54 65 -54 40 0 59 10
59 30 0 16 -4 17 -29 7 -37 -14 -61 3 -61 44 0 33 24 49 63 42 31 -6 37 11 8
27 -23 12 -38 12 -67 0z"/>
<path d="M767 904 c-4 -4 -7 -40 -7 -81 0 -66 2 -73 20 -73 16 0 20 7 20 30 0
25 4 30 25 30 21 0 25 -5 25 -30 0 -24 4 -30 20 -30 19 0 21 5 18 78 -2 60 -6
77 -18 77 -10 0 -16 -12 -18 -32 -3 -27 -8 -33 -27 -33 -19 0 -24 6 -27 32 -3
31 -17 45 -31 32z"/>
<path d="M910 830 c0 -63 3 -80 14 -80 11 0 16 14 18 48 l3 47 35 -47 c51 -68
60 -63 60 32 0 63 -3 80 -14 80 -11 0 -16 -14 -18 -46 l-3 -47 -33 47 c-50 69
-62 62 -62 -34z"/>
<path d="M1070 830 c0 -64 3 -80 15 -80 12 0 15 16 15 80 0 64 -3 80 -15 80
-12 0 -15 -16 -15 -80z"/>
<path d="M1145 885 c-31 -30 -34 -86 -6 -114 16 -16 33 -20 80 -19 44 1 61 5
61 14 0 9 12 14 35 14 24 0 35 -5 35 -15 0 -12 14 -15 65 -15 51 0 65 3 65 15
0 9 -9 15 -25 15 -23 0 -24 4 -27 63 -2 47 -7 62 -18 62 -12 0 -16 -17 -18
-75 l-4 -75 -26 75 c-36 101 -55 102 -91 5 -15 -40 -27 -62 -29 -52 -3 14 -7
16 -17 7 -24 -20 -59 -8 -70 24 -8 24 -6 31 13 47 18 14 29 16 48 9 20 -8 24
-7 24 9 0 38 -60 42 -95 6z m185 -62 c0 -7 -7 -13 -15 -13 -16 0 -19 9 -9 35
5 13 8 14 15 3 5 -7 9 -19 9 -25z"/>
<path d="M1571 893 c-33 -27 -38 -82 -11 -116 18 -23 29 -28 59 -25 25 2 37 8
39 21 3 15 -1 17 -22 11 -34 -8 -56 10 -56 47 0 35 30 55 60 39 17 -9 20 -8
20 9 0 34 -54 42 -89 14z"/>
<path d="M1714 900 c-44 -18 -51 -107 -11 -135 56 -39 124 6 113 75 -9 56 -51
81 -102 60z m66 -69 c0 -36 -25 -59 -48 -44 -24 14 -28 64 -6 80 25 18 54 -1
54 -36z"/>
<path d="M1837 904 c-4 -4 -7 -40 -7 -81 l0 -73 45 0 c33 0 45 4 45 15 0 9 -9
15 -25 15 -23 0 -24 4 -27 62 -3 57 -14 79 -31 62z"/>
<path d="M1940 830 l0 -80 45 0 c33 0 45 4 45 15 0 10 -10 15 -30 15 l-30 0 0
65 c0 51 -3 65 -15 65 -12 0 -15 -16 -15 -80z"/>
<path d="M2040 829 l0 -79 45 0 c33 0 45 4 45 15 0 10 -10 15 -30 15 -23 0
-30 4 -30 20 0 15 7 20 25 20 15 0 25 6 25 15 0 9 -8 14 -22 12 -14 -1 -23 4
-26 16 -3 13 3 17 28 17 49 0 31 25 -18 26 l-42 2 0 -79z"/>
<path d="M2165 885 c-47 -46 -20 -135 41 -135 42 0 64 18 64 50 0 27 -3 30
-32 30 -25 0 -29 -3 -20 -12 18 -18 14 -38 -8 -38 -20 0 -40 27 -40 54 0 26
45 49 69 36 18 -9 21 -8 21 9 0 38 -60 42 -95 6z"/>
<path d="M2290 828 l0 -78 45 0 c33 0 45 4 45 15 0 10 -10 15 -30 15 -23 0
-30 4 -30 20 0 15 7 20 25 20 14 0 25 6 25 14 0 9 -8 12 -25 8 -20 -3 -25 0
-25 17 0 17 6 21 31 21 20 0 29 4 27 13 -3 7 -22 12 -46 13 l-42 0 0 -78z"/>
<path d="M2555 819 c-11 -16 -1 -19 13 -3 7 8 8 14 3 14 -5 0 -13 -5 -16 -11z"/>
<path d="M2603 820 c9 -6 17 -20 17 -30 0 -10 -8 -24 -17 -30 -11 -7 -12 -10
-4 -7 24 6 37 35 25 54 -6 9 -17 18 -25 20 -8 3 -7 0 4 -7z"/>
<path d="M2572 790 c0 -14 2 -19 5 -12 2 6 2 18 0 25 -3 6 -5 1 -5 -13z"/>
<path d="M2591 794 c0 -11 3 -14 6 -6 3 7 2 16 -1 19 -3 4 -6 -2 -5 -13z"/>
<path d="M2550 771 c0 -10 19 -25 25 -20 1 2 -3 10 -11 17 -8 7 -14 8 -14 3z"/>
</g>
</svg>
